<svg width="170" height="170" viewBox="0 0 170 170" fill="none" xmlns="http://www.w3.org/2000/svg">
<circle cx="85" cy="85" r="85" fill="#FF6961"/>
<path d="M115.25 88.7744H111.75C111.238 88.7744 110.819 88.9606 110.492 89.335C110.163 89.7071 110 90.1841 110 90.7649V110.671C110 113.408 109.143 115.751 107.43 117.701C105.717 119.65 103.656 120.623 101.25 120.623H55.7496C53.3434 120.623 51.2833 119.65 49.5696 117.701C47.8562 115.751 46.9996 113.409 46.9996 110.671V58.9145C46.9996 56.1774 47.856 53.835 49.5696 51.8858C51.2833 49.9363 53.3434 48.9622 55.7496 48.9622H94.249C94.7602 48.9622 95.1797 48.775 95.5075 48.4022C95.8352 48.029 95.999 47.5525 95.999 46.9714V42.9895C95.999 42.4095 95.8352 41.9321 95.5075 41.5595C95.1797 41.1863 94.7602 41 94.249 41H55.7496C51.4115 41 47.7016 42.7522 44.6204 46.2565C41.5404 49.7605 40 53.9805 40 58.9152V110.672C40 115.606 41.5404 119.827 44.6206 123.33C47.7018 126.835 51.4117 128.588 55.7498 128.588H101.25C105.588 128.588 109.298 126.835 112.379 123.33C115.46 119.827 117 115.607 117 110.672V90.7665C117 90.1849 116.836 89.7078 116.507 89.335C116.179 88.9606 115.76 88.7744 115.25 88.7744Z" fill="white"/>
<path d="M137.805 42.3268C137.288 41.5505 136.611 41.1044 135.774 40.9883L111.035 37.5578C110.198 37.4417 109.425 37.6866 108.717 38.2933C108.009 38.8995 107.589 39.6758 107.458 40.622C107.327 41.5681 107.52 42.4296 108.036 43.206L115.208 53.9915L78.7701 85.211C78.397 85.5301 78.1782 85.9264 78.1127 86.3987C78.047 86.8726 78.1503 87.3134 78.4219 87.7219L83.0673 94.7074C83.3389 95.1159 83.6844 95.3487 84.1031 95.4068C84.5218 95.4649 84.9177 95.335 85.2901 95.0157L121.728 63.7968L128.9 74.5824C129.416 75.3587 130.093 75.8051 130.93 75.9212C131.768 76.0373 132.541 75.792 133.249 75.1855C133.957 74.579 134.376 73.8028 134.507 72.8567L138.383 44.9103C138.514 43.9635 138.32 43.1027 137.805 42.3268Z" fill="white"/>
</svg>
