<svg width="134" height="153" viewBox="0 0 134 153" fill="none" xmlns="http://www.w3.org/2000/svg">
<path d="M13.3194 136.911L0.971191 0.977051L134 1.02893L121.756 136.808L67.3819 152.165L13.3194 136.911ZM111.742 129.492L122.067 13.0659H67.5894L68.0045 141.477L111.742 129.492V129.492ZM62.5049 30.1355H49.2746L49.119 99.8149L23.4367 92.8106L23.4886 108.739L62.5049 119.271V30.1355V30.1355Z" fill="#D4B830"/>
<path d="M67.5894 13.0139H122.067L111.742 129.44L67.5894 141.425V13.0139ZM108.94 109.932L112.52 66.4019L86.0598 69.3593V46.1155L114.284 46.0117L115.426 30.1354L72.8296 30.343L73.4003 88.141L99.1344 83.7309L98.7713 96.598L72.8296 103.499L73.089 119.271L108.94 109.932Z" fill="#FDD83C"/>
</svg>
