<svg width="726" height="661" viewBox="0 0 726 661" fill="none" xmlns="http://www.w3.org/2000/svg">
<path d="M8 281.973V345.076L31.5637 369.265H53.5564L68.7419 384.515H122.153L135.767 370.843H197.033L188.655 379.257V414.489L204.364 430.265H230.022L244.684 444.989V458.661L269.818 483.903H344.175L361.455 466.549H370.357L391.302 487.584H426.909L440.524 501.256V512.825L516.975 589.6V602.221L549.964 635.35H581.906L597.615 619.574V607.479L585.571 595.385V582.238L568.291 564.885V554.368L600.757 521.764H633.222L663.07 491.79V474.963L695.012 442.886V392.929L685.586 383.463V346.127L704.961 326.671V287.231L718.052 274.085V208.878L684.539 175.223V154.189L635.841 105.284H621.179L591.855 75.8358H559.39L519.593 35.8705H479.797L461.993 17.9913H380.829L370.88 8H287.098L265.629 29.5602H183.942L161.426 52.1722V74.7841L132.102 104.232H94.9237L42.56 156.818V191.525L21.0909 213.085V268.826L8 281.973Z" fill="black" fill-opacity="0.12" stroke="white" stroke-width="15"/>
<path d="M72.9798 124.676H153.256V154.586H126.724L72.9798 208.287L98.151 233.438M146.453 96.1261H204.959M204.959 96.1261L234.212 66.8963H261.424M204.959 96.1261L176.386 124.676V181.776M288.636 66.8963H261.424M261.424 66.8963L288.636 39.7059H315.849M366.191 39.7059L387.281 18.6332M366.191 39.7059L422.656 96.1261H449.188V124.676L422.656 174.978H341.02L315.849 200.13V233.438H366.191V208.287H341.02M366.191 39.7059H315.849M315.849 39.7059L372.314 96.1261H315.849L366.191 146.428H392.723L414.493 124.676H372.314M261.424 124.676V154.586L234.212 181.776L207 154.586L261.424 100.205L315.849 154.586L262.104 208.287L306.324 252.471M176.386 181.776H153.256M176.386 181.776L251.9 257.23M126.724 233.438V208.287H153.256L202.238 257.23M202.238 364.632L232.171 340.84M341.02 300.055L262.104 317.049L232.171 340.84M341.02 300.055L422.656 287.139L448.681 266.87M341.02 300.055V276.78L357.56 260.24H386.655M448.681 266.87L465.516 200.13L479.802 124.676L541.71 62.8178M448.681 266.87H493.871M539.062 266.87L583.208 317.049M539.062 266.87H493.871M539.062 266.87L479.802 326.13H414.493L398.863 341.76H329.945L293.32 378.385V415.6L321.204 443.484M583.208 317.049H639.674L714.507 252.471M583.208 317.049L549.873 350.357V392.162M549.873 433.968H517.219L493.408 457.759H422.656L392.723 487.669M549.873 433.968L609.06 443.484L662.804 469.995M549.873 433.968V413.065M8 287.139L37.9095 257.23H90.8443L119.417 285.802V316.601L98.151 337.867H83.0161H60.5745L47.5786 324.871V306.907M232.171 340.84H188.762L167.496 319.574V282.097H234.212V317.049H202.238M406.149 225.387V200.13H433.322L444.546 211.353V242.518M583.208 81.2501L527.694 136.764V174.423L553.401 200.13M674.338 146.428L629.443 191.324M629.443 191.324L598.134 160.015L576.373 181.776M629.443 191.324L663.506 225.387V260.24L639.674 284.072M583.208 252.471L614.084 221.596M493.871 266.87V242.518L514.794 221.596H539.062M549.873 392.162H493.871L482.248 403.786H403.387M549.873 392.162V413.065M549.873 413.065H583.208L592.227 422.084H624.717L634.183 431.55H658.388M690.287 341.76H662.804L639.674 364.89H598.134M614.084 396.697H644.211L658.388 410.875H678.473" stroke="white" stroke-width="7"/>
<path d="M346.264 651.794L307.71 631.739L308.823 615.226L303.138 588.31L311.283 548.597C316.408 534.93 331.003 542.37 331.063 549.882L329.821 566.938L358.06 512.651C358.749 511.327 361.296 507.311 368.983 511.309C375.949 514.933 374.257 519.652 373.674 520.773L362.242 542.749C372.599 535.162 378.247 545.425 375.934 549.872L372.371 556.721C372.371 556.721 377.459 553.102 382.743 555.851C387.238 558.651 388.155 561.875 386.904 564.28L381.781 574.129C383.271 571.852 387.523 567.96 392.616 570.609C397.708 573.258 396.979 577.965 395.978 579.988L375.735 618.902L346.264 651.794Z" fill="#FFD9D9"/>
<path d="M381.781 574.129C383.271 571.852 387.523 567.96 392.616 570.609C397.708 573.258 396.979 577.965 395.978 579.988L375.735 618.902L346.264 651.794L307.71 631.739L308.823 615.226L303.138 588.31L311.283 548.597C316.408 534.93 331.003 542.37 331.063 549.882L329.821 566.938L358.06 512.651C358.749 511.327 361.296 507.311 368.983 511.309C375.949 514.933 374.257 519.652 373.674 520.773L362.242 542.749M381.781 574.129L375.096 586.98M381.781 574.129L386.904 564.28C388.155 561.875 387.238 558.651 382.743 555.851C377.459 553.102 372.371 556.721 372.371 556.721M372.371 556.721L362.937 574.856M372.371 556.721L375.934 549.872C378.247 545.425 372.599 535.162 362.242 542.749M362.242 542.749L348.371 569.416" stroke="black" stroke-width="6"/>
<path d="M349.033 543.207L354.678 546.143M347.471 546.209L353.116 549.146" stroke="black" stroke-width="2"/>
<path d="M373.04 499.99L376.726 492.904C376.726 492.904 377.221 492.246 378.302 492.808C379.383 493.37 379.128 494.154 379.128 494.154L375.442 501.24C375.442 501.24 375.004 502.08 373.803 501.456C372.602 500.831 373.04 499.99 373.04 499.99Z" fill="black" stroke="black"/>
<path d="M390.812 509.86L383.195 512.264C383.195 512.264 382.379 512.38 382.012 511.218C381.646 510.056 382.38 509.682 382.38 509.682L389.997 507.278C389.997 507.278 390.9 506.993 391.308 508.284C391.715 509.575 390.812 509.86 390.812 509.86Z" fill="black" stroke="black"/>
<path d="M359.625 491.479L362.029 499.097C362.029 499.097 362.145 499.912 360.983 500.279C359.821 500.645 359.447 499.912 359.447 499.912L357.043 492.294C357.043 492.294 356.758 491.391 358.049 490.983C359.34 490.576 359.625 491.479 359.625 491.479Z" fill="black" stroke="black"/>
<path d="M387.891 529.233L380.805 525.547C380.805 525.547 380.146 525.052 380.709 523.971C381.271 522.89 382.054 523.145 382.054 523.145L389.14 526.831C389.14 526.831 389.981 527.268 389.356 528.469C388.732 529.67 387.891 529.233 387.891 529.233Z" fill="black" stroke="black"/>
<path d="M349.937 509.49L342.851 505.804C342.851 505.804 342.193 505.309 342.755 504.228C343.317 503.147 344.101 503.402 344.101 503.402L351.187 507.088C351.187 507.088 352.027 507.525 351.403 508.727C350.778 509.928 349.937 509.49 349.937 509.49Z" fill="black" stroke="black"/>
<path d="M398.722 523.469C397.414 525.802 397.726 530.29 398.112 532.258C398.112 532.258 398.517 533.021 398.94 532.968C399.373 532.914 399.56 532.039 399.56 532.039L400.234 529.963C402.584 524.899 406.418 524.891 406.418 524.891C408.05 524.432 410.728 524.936 411.863 525.246L411.48 531.266L427.263 521.86L412.456 512.815L412.101 518.261L409.915 517.87C406.209 517.214 403.55 518.716 403.55 518.716C403.55 518.716 400.398 520.482 398.722 523.469Z" fill="#FFD9D9" stroke="black" stroke-width="3"/>
</svg>
