<svg width="170" height="170" viewBox="0 0 170 170" fill="none" xmlns="http://www.w3.org/2000/svg">
<circle cx="85" cy="85" r="85" fill="#FF6961"/>
<path d="M44.3867 120.566C44.3867 120.565 44.3867 120.565 44.3867 120.565L44.3874 120.546V120.509V74.0364H129.59V120.443C129.588 120.458 129.586 120.479 129.583 120.506C129.573 120.597 129.552 120.751 129.51 120.961C129.427 121.38 129.261 122.018 128.934 122.804C128.284 124.367 126.982 126.553 124.358 128.788C119.103 133.263 108.314 138.112 86.2691 138.112C64.2112 138.112 53.822 133.258 48.9476 128.83C46.5162 126.622 45.3916 124.465 44.864 122.924C44.5982 122.148 44.4802 121.517 44.428 121.102C44.4019 120.894 44.3922 120.741 44.3887 120.651C44.3869 120.606 44.3867 120.577 44.3867 120.566ZM129.592 120.419L129.592 120.414C129.592 120.411 129.592 120.413 129.592 120.419Z" fill="#FF6961" stroke="white" stroke-width="4"/>
<path d="M127.5 120L128 72H86.6667L86 136C127.333 136 127.5 120 127.5 120Z" fill="#B74A44" fill-opacity="0.5"/>
<path d="M22.6159 72.4277L86.597 31.3763L150.578 72.4277L86.597 113.479L22.6159 72.4277Z" fill="#FF6961" stroke="white" stroke-width="4"/>
<path d="M147 72.5L87 34V111L147 72.5Z" fill="#B74A44" fill-opacity="0.5"/>
<rect x="22.0422" y="68.9066" width="64.946" height="6.25985" fill="white"/>
<rect x="18.9124" y="90.816" width="18.7796" height="5.47737" transform="rotate(-90 18.9124 90.816)" fill="white"/>
<path d="M20 119V101H22V119H20Z" fill="white"/>
<rect x="19" y="100" width="1" height="19" fill="#FFD954"/>
<rect x="20.5649" y="100" width="0.782481" height="18.7796" fill="#FFD954"/>
<rect x="22" y="100" width="1" height="19" fill="#FFD954"/>
<circle cx="86.9883" cy="72.0365" r="3.12993" fill="#E3E3E3"/>
<circle cx="22.0423" cy="72.0365" r="3.12993" fill="white"/>
<path d="M26 92.6875C26 95.2763 23.4853 103 21 103C18.5147 103 17 95.2763 17 92.6875C17 90.0987 19.0147 88 21.5 88C23.9853 88 26 90.0987 26 92.6875Z" fill="#FFD954"/>
</svg>
