<svg width="40" height="40" viewBox="0 0 40 40" fill="none" xmlns="http://www.w3.org/2000/svg">
<circle cx="20" cy="20" r="20" fill="#FF6961"/>
<path d="M27.0132 29.4491H28.7959C28.7959 29.4491 28.8901 29.4491 28.8901 29.5351C28.8901 29.6212 28.7959 29.6212 28.7959 29.6212H27.0132C27.0132 29.6212 26.9109 29.6212 26.9109 29.5351C26.9109 29.4491 27.0132 29.4491 27.0132 29.4491Z" fill="#E7E7E7"/>
<path d="M8 9.87036H32.9999C33.8283 9.87036 34.4999 10.5419 34.4999 11.3704V27.8519C34.4999 29.2326 33.3806 30.3519 31.9999 30.3519H9C7.61929 30.3519 6.5 29.2326 6.5 27.8519V11.3704C6.5 10.5419 7.17157 9.87036 8 9.87036Z" fill="#FF6961" stroke="white"/>
<path d="M20.5 10.3741H33.0148C33.5674 10.3741 34.0153 10.8223 34.0148 11.3749L34.0016 27.979C34.0007 29.0918 33.0918 29.9898 31.9792 29.9773L20.5 29.8484V10.3741Z" fill="#B74A44" fill-opacity="0.5"/>
<rect x="6" y="19.2948" width="28.9999" height="1.72106" fill="white"/>
<rect x="11.647" y="17.1435" width="3.35607" height="6.02371" rx="1" fill="#FFD954"/>
<rect x="12.3352" y="18.3483" width="1.97922" height="3.61423" rx="0.98961" fill="white"/>
<rect x="25.9968" y="17.1435" width="3.35607" height="6.02371" rx="1" fill="#FFD954"/>
<rect x="26.6853" y="18.3483" width="1.97922" height="3.61423" rx="0.98961" fill="white"/>
<path d="M15.5925 6.64813H25.4073C25.6835 6.64813 25.9073 6.87199 25.9073 7.14813V9.87109H15.0925V7.14813C15.0925 6.87199 15.3164 6.64813 15.5925 6.64813Z" fill="#FF6961" stroke="white"/>
</svg>
