<svg width="170" height="170" viewBox="0 0 170 170" fill="none" xmlns="http://www.w3.org/2000/svg">
<circle cx="85" cy="85" r="85" fill="#FF6961"/>
<path d="M85 27C51.85 27 25 53.8587 25 86.9845C25 113.492 42.19 135.971 66.025 143.897C69.025 144.461 70.125 142.604 70.125 141.012C70.125 139.588 70.075 135.813 70.05 130.813C53.36 134.43 49.84 122.766 49.84 122.766C47.11 115.842 43.165 113.991 43.165 113.991C37.73 110.272 43.585 110.349 43.585 110.349C49.61 110.766 52.775 116.529 52.775 116.529C58.125 125.701 66.82 123.05 70.25 121.519C70.79 117.638 72.335 114.998 74.05 113.497C60.725 111.997 46.72 106.839 46.72 83.8561C46.72 77.3093 49.045 71.9578 52.895 67.7612C52.22 66.2453 50.195 60.1461 53.42 51.885C53.42 51.885 58.445 50.2776 69.92 58.0351C74.72 56.7023 79.82 56.041 84.92 56.0105C90.02 56.041 95.12 56.7023 99.92 58.0351C111.32 50.2776 116.345 51.885 116.345 51.885C119.57 60.1461 117.545 66.2453 116.945 67.7612C120.77 71.9578 123.095 77.3093 123.095 83.8561C123.095 106.9 109.07 111.971 95.72 113.446C97.82 115.247 99.77 118.925 99.77 124.546C99.77 132.573 99.695 139.023 99.695 140.972C99.695 142.543 100.745 144.42 103.82 143.82C127.825 135.946 145 113.452 145 86.9845C145 53.8587 118.135 27 85 27V27Z" fill="white"/>
</svg>
