<svg width="726" height="665" viewBox="0 0 726 665" fill="none" xmlns="http://www.w3.org/2000/svg">
<path d="M337.898 655.219L299.344 635.163L300.456 618.65L294.772 591.734L302.917 552.021C308.042 538.355 322.637 545.795 322.697 553.307L321.455 570.363L349.694 516.076C350.383 514.752 352.93 510.736 360.617 514.734C367.583 518.358 365.891 523.077 365.308 524.198L353.876 546.174C364.232 538.586 369.881 548.85 367.568 553.296L364.005 560.145C364.005 560.145 369.092 556.527 374.377 559.276C378.872 562.076 379.789 565.3 378.538 567.705L373.415 577.554C374.905 575.276 379.157 571.384 384.25 574.033C389.342 576.682 388.613 581.39 387.611 583.412L367.369 622.326L337.898 655.219Z" fill="#FFD9D9"/>
<path d="M373.415 577.554C374.905 575.276 379.157 571.384 384.25 574.033C389.342 576.682 388.613 581.39 387.611 583.412L367.369 622.326L337.898 655.219L299.344 635.163L300.456 618.65L294.772 591.734L302.917 552.021C308.042 538.355 322.637 545.795 322.697 553.307L321.455 570.363L349.694 516.076C350.383 514.752 352.93 510.736 360.617 514.734C367.583 518.358 365.891 523.077 365.308 524.198L353.876 546.174M373.415 577.554L366.73 590.405M373.415 577.554L378.538 567.705C379.789 565.3 378.872 562.076 374.377 559.276C369.092 556.527 364.005 560.145 364.005 560.145M364.005 560.145L354.571 578.281M364.005 560.145L367.568 553.296C369.881 548.85 364.232 538.586 353.876 546.174M353.876 546.174L340.005 572.84" stroke="black" stroke-width="6"/>
<path d="M340.667 546.631L346.311 549.568M339.105 549.634L344.749 552.57" stroke="black" stroke-width="2"/>
<path d="M364.673 503.415L368.36 496.329C368.36 496.329 368.854 495.67 369.935 496.233C371.016 496.795 370.762 497.578 370.762 497.578L367.075 504.664C367.075 504.664 366.638 505.505 365.437 504.88C364.236 504.255 364.673 503.415 364.673 503.415Z" fill="black" stroke="black"/>
<path d="M382.446 513.285L374.828 515.689C374.828 515.689 374.013 515.804 373.646 514.642C373.279 513.48 374.013 513.107 374.013 513.107L381.631 510.703C381.631 510.703 382.534 510.417 382.942 511.708C383.349 512.999 382.446 513.285 382.446 513.285Z" fill="black" stroke="black"/>
<path d="M351.259 494.904L353.663 502.521C353.663 502.521 353.779 503.336 352.617 503.703C351.455 504.07 351.081 503.336 351.081 503.336L348.677 495.719C348.677 495.719 348.392 494.815 349.683 494.408C350.974 494 351.259 494.904 351.259 494.904Z" fill="black" stroke="black"/>
<path d="M379.525 532.658L372.438 528.972C372.438 528.972 371.78 528.477 372.343 527.396C372.905 526.315 373.688 526.569 373.688 526.569L380.774 530.256C380.774 530.256 381.615 530.693 380.99 531.894C380.365 533.095 379.525 532.658 379.525 532.658Z" fill="black" stroke="black"/>
<path d="M341.571 512.915L334.485 509.229C334.485 509.229 333.827 508.734 334.389 507.653C334.951 506.572 335.734 506.827 335.734 506.827L342.82 510.513C342.82 510.513 343.661 510.95 343.036 512.151C342.412 513.352 341.571 512.915 341.571 512.915Z" fill="black" stroke="black"/>
<path d="M390.356 526.894C389.047 529.227 389.36 533.715 389.745 535.682C389.745 535.682 390.151 536.445 390.574 536.392C391.007 536.338 391.193 535.463 391.193 535.463L391.867 533.387C394.217 528.324 398.051 528.315 398.051 528.315C399.683 527.856 402.362 528.361 403.497 528.671L403.114 534.69L418.897 525.284L404.09 516.24L403.734 521.686L401.549 521.294C397.842 520.638 395.183 522.141 395.183 522.141C395.183 522.141 392.032 523.907 390.356 526.894Z" fill="#FFD9D9" stroke="black" stroke-width="3"/>
<path d="M718.052 281.973V345.076L694.488 369.265H672.495L657.31 384.515H603.899L590.284 370.843H529.019L537.397 379.257V414.489L521.688 430.265H496.03L481.368 444.989V458.661L456.233 483.903H381.877L364.597 466.549H355.695L334.75 487.584H299.142L285.528 501.256V512.825L209.077 589.6V602.221L176.088 635.35H144.146L128.437 619.574V607.479L140.48 595.385V582.238L157.76 564.885V554.368L125.295 521.764H92.8293L62.982 491.79V474.963L31.0402 442.886V392.929L40.4656 383.463V346.127L21.0911 326.671V287.231L8.00018 274.085V208.878L41.5129 175.223V154.189L90.2112 105.284H104.873L134.197 75.8358H166.662L206.459 35.8705H246.255L264.059 17.9913H345.222L355.171 8H438.953L460.422 29.5602H542.11L564.626 52.1722V74.7841L593.95 104.232H631.128L683.492 156.818V191.525L704.961 213.085V268.826L718.052 281.973Z" fill="black" fill-opacity="0.12" stroke="white" stroke-width="15"/>
<path d="M521 368L493.881 340.84L463.947 317.049L385.032 300.055L303.395 287.139L277.371 266.87M277.371 266.87L260.536 200.13L246.25 124.676L184.342 62.8177M277.371 266.87H232.18H186.99L142.843 317.049M142.843 317.049H86.378L11.5444 252.471M142.843 317.049L176.178 350.357V392.162V413.065V433.968M176.178 433.968H208.833L232.644 457.759H303.395L333.329 487.669M176.178 433.968L116.992 443.484L63.2476 469.995" stroke="white" stroke-width="7"/>
<circle cx="192" cy="364" r="5" fill="white"/>
<circle cx="316" cy="384" r="5" fill="white"/>
<circle cx="224" cy="291" r="5" fill="white"/>
<circle cx="337" cy="327" r="5" fill="white"/>
<circle cx="239" cy="333" r="5" fill="white"/>
<circle cx="349" cy="364" r="5" fill="white"/>
<circle cx="363" cy="333" r="5" fill="white"/>
<circle cx="445" cy="261" r="5" fill="white"/>
<circle cx="435" cy="229" r="5" fill="white"/>
<circle cx="378" cy="170" r="5" fill="white"/>
<circle cx="366" cy="190" r="5" fill="white"/>
<circle cx="292" cy="147" r="5" fill="white"/>
<circle cx="223" cy="68" r="5" fill="white"/>
<circle cx="282" cy="187" r="5" fill="white"/>
<circle cx="412" cy="159" r="5" fill="white"/>
<circle cx="416" cy="129" r="5" fill="white"/>
<circle cx="444" cy="100" r="5" fill="white"/>
<circle cx="337" cy="135" r="5" fill="white"/>
<circle cx="308" cy="97" r="5" fill="white"/>
<circle cx="302" cy="41" r="5" fill="white"/>
<circle cx="401" cy="42" r="5" fill="white"/>
<circle cx="479" cy="80" r="5" fill="white"/>
<circle cx="587" cy="153" r="5" fill="white"/>
<circle cx="446" cy="59" r="5" fill="white"/>
<circle cx="356" cy="271" r="5" fill="white"/>
<circle cx="340" cy="248" r="5" fill="white"/>
<circle cx="489" cy="139" r="5" fill="white"/>
<circle cx="642" cy="144" r="5" fill="white"/>
<circle cx="669" cy="310" r="5" fill="white"/>
<circle cx="550" cy="335" r="5" fill="white"/>
<circle cx="521" cy="340" r="5" fill="white"/>
<circle cx="395" cy="277" r="5" fill="white"/>
<circle cx="405" cy="222" r="5" fill="white"/>
<circle cx="405" cy="253" r="5" fill="white"/>
<circle cx="521" cy="222" r="5" fill="white"/>
<circle cx="537" cy="244" r="5" fill="white"/>
<circle cx="555" cy="277" r="5" fill="white"/>
<circle cx="587" cy="323" r="5" fill="white"/>
<circle cx="589" cy="223" r="5" fill="white"/>
<circle cx="638" cy="189" r="5" fill="white"/>
<circle cx="627" cy="239" r="5" fill="white"/>
<circle cx="650" cy="217" r="5" fill="white"/>
<circle cx="685" cy="220" r="5" fill="white"/>
<circle cx="642" cy="267" r="5" fill="white"/>
<circle cx="597" cy="289" r="5" fill="white"/>
<circle cx="424" cy="356" r="5" fill="white"/>
<circle cx="440" cy="372" r="5" fill="white"/>
<circle cx="400" cy="399" r="5" fill="white"/>
<circle cx="378" cy="407" r="5" fill="white"/>
<circle cx="323" cy="440" r="5" fill="white"/>
<circle cx="60" cy="327" r="5" fill="white"/>
<circle cx="134" cy="354" r="5" fill="white"/>
<circle cx="133" cy="384" r="5" fill="white"/>
<circle cx="56" cy="407" r="5" fill="white"/>
<circle cx="77" cy="424" r="5" fill="white"/>
<circle cx="145" cy="424" r="5" fill="white"/>
<circle cx="234" cy="212" r="5" fill="white"/>
<circle cx="234" cy="243" r="5" fill="white"/>
<circle cx="183" cy="97" r="5" fill="white"/>
<circle cx="223" cy="169" r="5" fill="white"/>
<circle cx="94" cy="149" r="5" fill="white"/>
<circle cx="120" cy="174" r="5" fill="white"/>
<circle cx="162" cy="180" r="5" fill="white"/>
<circle cx="130" cy="119" r="5" fill="white"/>
<circle cx="138" cy="96" r="5" fill="white"/>
<circle cx="162" cy="121" r="5" fill="white"/>
<circle cx="180" cy="139" r="5" fill="white"/>
<circle cx="197" cy="180" r="5" fill="white"/>
<circle cx="244" cy="182" r="5" fill="white"/>
<circle cx="192" cy="255" r="5" fill="white"/>
<circle cx="173" cy="266" r="5" fill="white"/>
<circle cx="144" cy="212" r="5" fill="white"/>
<path d="M130 119.5L162 151.5V180.5M138 96.5004L163 121.5M180 139.5L197 156.5V180.5M192 255.5V220L230 182H243.5M173.5 266V241.5L144 212M93.5 148.5L120 175M183 96.5004L214 111L223.5 129.5V145V169.5M234 212V243.5M60.5 327.501H83L109.5 354.001H133M133 384.001H112.5L89 407.501H54M76.5 424.501H146M90 359.001L68 381.001M224 291.001H254.5L290.5 327.001H337M363 333.001H386L409 356.001H425M439.5 372.001V406.501L416.5 429.501H399L377.5 408.001M192 364.501H230L249.5 384.001H315.5M400 399.501L390.5 390.001H359.5L344 405.501V419.001L322 441.001M488.5 142V164.41L515.712 191.6L542.924 164.41L488.5 110.029L434.076 164.41L487.82 218.111L443.6 262.295M435.014 226.996V201.845H408.482L377.5 170.863M354.462 272.054L375.728 250.788V213.31H309.012V248.262H340.986M643.997 142L587.532 198.42H561V226.97L587.532 277.273H669.168L694.34 302.424V335.732H643.997V310.581H669.168M595 287.732L618.5 311.232V338.732L599 358.232H572L549.5 335.732M637 189H623L590.5 221.5M627 239.5L651 215.5M642 267H664L685 246V219M336.468 135.18V110.029H363L411.982 158.972M587.532 323.5L569.532 305.5H513.5L492 284V250.788L521.288 221.5M537 245L518 264V277.273H555M393 277.273H439.5L461 298.773H480L521.288 340.061M405 222V253.5M282 187.5L305.09 164.41H340.986L367 190.423M292 148V123.5L260 91.5V83L245 68H223.5M239 333.001L262 356.001H340.986L349.486 364.501M308 97L322 83H422.5L446 59.5M302 41.5L322 61.5H382.5L401 43M479 80.5H507.5L545.5 118.5H569.5L587.532 136.532V151.5M415 130L445 100" stroke="white" stroke-width="4"/>
<circle cx="43" cy="265" r="5" fill="white"/>
<circle cx="87" cy="286" r="5" fill="white"/>
<path d="M42.5 265H66L87.5 286.5" stroke="white" stroke-width="4"/>
<circle cx="62" cy="239" r="5" fill="white"/>
<circle cx="150" cy="287" r="5" fill="white"/>
<path d="M60.5 238L107.5 287.5H151.5" stroke="white" stroke-width="4"/>
<circle cx="74" cy="195" r="5" fill="white"/>
<circle cx="115" cy="267" r="5" fill="white"/>
<path d="M73.5 195V225L115 266.5" stroke="white" stroke-width="4"/>
<circle cx="80" cy="164" r="5" fill="white"/>
<circle cx="167" cy="197" r="5" fill="white"/>
<path d="M79.5 164L110.5 196.5H167" stroke="white" stroke-width="4"/>
<circle cx="96" cy="212" r="5" fill="white"/>
<circle cx="149" cy="267" r="5" fill="white"/>
<path d="M95.5 212L149.5 267" stroke="white" stroke-width="4"/>
<circle cx="90" cy="359" r="5" fill="white"/>
<circle cx="68" cy="381" r="5" fill="white"/>
</svg>
